<svg width="115" height="65" viewBox="0 0 115 65" fill="none" xmlns="http://www.w3.org/2000/svg">
<path fill-rule="evenodd" clip-rule="evenodd" d="M5.25572 56.3265C5.2552 57.1337 5.00352 57.7837 4.49964 58.2761C3.99577 58.7684 3.31146 59.0143 2.44672 59.0138L0.895618 59.0133L0.894593 62.9532L0.012424 62.9527L0.0149869 53.6367L2.44826 53.6372C3.313 53.6372 3.99731 53.8836 4.50067 54.3765C5.00403 54.8688 5.25572 55.5188 5.25572 56.3265ZM4.3064 56.326C4.3064 55.6872 4.11725 55.2061 3.73845 54.8821C3.35964 54.5581 2.87166 54.3959 2.27449 54.3959L0.897156 54.3953L0.896131 58.2551H2.27346C2.93265 58.2556 3.43653 58.0873 3.78458 57.75C4.13212 57.4128 4.30589 56.9383 4.3064 56.326ZM12.6867 62.9568L7.88685 62.9552L7.88941 53.6387L12.4356 53.6402V54.3989L8.77158 54.3974L8.77055 57.7648L12.2608 57.7658L12.2603 58.5245L8.77055 58.5235L8.76953 62.1966L12.6873 62.1981L12.6867 62.9568ZM22.2999 62.9593L21.0563 62.9588L16.3779 58.2597L16.3364 62.9578L15.4537 62.9573L15.4563 53.6407L16.339 53.6412L16.3379 57.9L20.6714 53.6423L21.7945 53.6428L17.2468 58.047L22.2999 62.9593ZM30.9232 62.9751H30.0405L30.0431 54.404L26.4462 54.403L26.4457 56.8648C26.4452 58.3291 26.4226 59.3317 26.3781 59.873C26.2883 60.9108 26.1054 61.6741 25.8291 62.1619C25.481 62.7649 24.9551 63.0665 24.2508 63.0665C24.1437 63.0665 24.0411 63.0598 23.9432 63.0466C23.8453 63.0333 23.7295 63.0088 23.5957 62.9731L23.6495 62.2409C23.8253 62.2853 24.0037 62.3078 24.1795 62.3078C24.746 62.3078 25.136 61.8246 25.3503 60.8572C25.4908 60.2184 25.5625 59.2827 25.5625 58.0495V57.876L25.563 57.7296C25.563 57.5699 25.563 57.4148 25.563 57.2643C25.563 57.1133 25.563 56.9668 25.563 56.825L25.5641 53.6438L30.9258 53.6453L30.9232 62.9751ZM42.0336 62.9654L41.0843 62.9649L40.0017 60.396L35.2151 60.3945L34.1715 62.9629L33.2217 62.9624L36.942 53.6474L38.0918 53.6479L42.0336 62.9654ZM39.6813 59.6373L37.8637 55.3913L37.53 54.5127L37.1953 55.3908L35.496 59.6358L39.6813 59.6373ZM54.1733 62.969L53.3178 62.9685L53.3198 55.7551L53.3203 54.4908H53.2665L52.8119 55.7148L49.7076 62.9675L48.7983 62.967L45.6981 55.7127L45.244 54.4882H45.1907L45.2168 55.7525L45.2147 62.966H44.3321L44.3351 53.6494L45.7258 53.6499L48.8388 60.8909L49.2263 62.1287H49.2796L49.6681 60.8914L52.7857 53.652L54.1764 53.6525L54.1733 62.969ZM65.2837 62.9721L64.3344 62.9716L63.2523 60.4026L58.4652 60.4016L57.4216 62.9695H56.4723L60.1921 53.654L61.3419 53.6545L65.2837 62.9721ZM62.9314 59.6439L61.1143 55.3979L60.7801 54.5193L60.4459 55.3979L58.7461 59.6429L62.9314 59.6439ZM70.5249 59.7797L67.5837 59.7786V59.073L70.5255 59.074L70.5249 59.7797ZM81.8076 65.0002L80.9254 64.9997L80.9259 62.9767L73.9593 62.9746L73.9624 53.6581L74.8445 53.6586L74.8425 62.2165L79.8162 62.218L79.8187 53.6601H80.7014L80.6988 62.218L81.8086 62.2185L81.8076 65.0002ZM89.2417 62.9792L84.4413 62.9777L84.4444 53.6611L88.9905 53.6627L88.99 54.4214L85.3265 54.4203L85.3255 57.7873L88.8152 57.7883V58.547L85.3255 58.546L85.324 62.2195L89.2417 62.2205V62.9792ZM98.6406 62.9818H97.7579L97.7594 58.5363L92.8924 58.5347L92.8908 62.9802L92.0087 62.9797L92.0112 53.6637H92.8939L92.8924 57.7766L97.7594 57.7776L97.761 53.6652L98.6431 53.6657L98.6406 62.9818ZM107.427 54.4265L104.632 54.426L104.63 62.9838L103.747 62.9833L103.75 54.4255L100.942 54.4249V53.6663L107.427 53.6683L107.427 54.4265ZM114.967 56.3587C114.967 57.1663 114.714 57.8158 114.211 58.3082C113.707 58.8006 113.022 59.0465 112.158 59.0465L110.607 59.046L110.605 62.9853H109.723L109.726 53.6688L112.16 53.6693C113.024 53.6698 113.708 53.9163 114.212 54.4086C114.715 54.9015 114.967 55.5515 114.967 56.3587ZM114.017 56.3587C114.017 55.7199 113.828 55.2382 113.449 54.9142C113.071 54.5903 112.583 54.428 111.985 54.428L110.608 54.4275L110.607 58.2873L111.984 58.2878C112.644 58.2878 113.147 58.1194 113.495 57.7827C113.843 57.4454 114.017 56.9709 114.017 56.3587Z" fill="#FEFEFE"/>
<path fill-rule="evenodd" clip-rule="evenodd" d="M4.16613 1.04958e-07L110.847 0.0316335C113.132 0.0321437 115 1.8929 115 4.16693L114.988 43.7903C114.987 46.0644 113.117 47.9241 110.833 47.9236L4.15229 47.8919C1.86768 47.8914 -0.000718181 46.0307 -0.00020559 43.7566L0.011584 4.13326C0.0120966 1.85923 1.88203 -0.000510111 4.16613 1.04958e-07ZM33.0219 23.0454L34.205 23.046L34.2193 23.0291L39.2586 23.0276C40.5411 23.0271 41.6483 22.8378 42.5812 22.4567C43.8632 21.9434 44.5045 21.1393 44.505 20.0454C44.5055 18.9515 43.8648 18.1474 42.5823 17.6331C41.6498 17.2519 40.5427 17.0616 39.2607 17.0606L35.223 17.0565H34.9954C34.9354 17.0621 34.8754 17.0647 34.8144 17.0647C34.7545 17.0647 34.695 17.0621 34.6366 17.057L31.2145 17.0581C29.932 17.0586 28.8248 17.2479 27.8919 17.629C26.6099 18.1423 25.9687 18.9464 25.9682 20.0403L25.9646 32.2242C25.9641 33.5778 25.1706 34.5722 23.5836 35.208C22.4297 35.6794 21.0591 35.9136 19.4726 35.9141C17.8856 35.9126 16.5155 35.6774 15.3616 35.2054C13.7752 34.5692 12.9822 33.5743 12.9827 32.2201L12.9863 20.0362H12.9888C12.9894 17.4285 14.6184 15.5126 17.8754 14.2886C20.2441 13.3809 23.0566 12.9289 26.3136 12.9284L32.9666 12.9299L34.816 12.9309L37.5107 12.9314L44.1641 12.9335C47.4206 12.936 50.2332 13.3896 52.6014 14.2993C55.8578 15.5249 57.4853 17.4417 57.4843 20.0495C57.4838 22.6572 55.8548 24.573 52.5978 25.797C51.6597 26.1562 50.6525 26.444 49.575 26.6608L56.4222 30.4798L56.3894 30.5053C56.9543 30.8752 57.3285 31.5125 57.3285 32.2334C57.328 33.587 56.5345 34.5814 54.9475 35.2172C53.7931 35.6886 52.423 35.9228 50.8365 35.9233C49.2495 35.9223 47.8794 35.6866 46.7255 35.2146C46.3457 35.0621 46.011 34.8891 45.7224 34.6957L31.9921 27.0384C31.173 26.7613 30.581 25.9873 30.581 25.0802C30.5815 23.9414 31.5149 23.0133 32.6585 23.0133C32.7825 23.0138 32.904 23.0245 33.0219 23.0454ZM61.769 23.9633C61.7706 19.9209 64.2951 16.9509 69.3441 15.0539C73.0158 13.6462 77.3759 12.9457 82.4244 12.9447L99.7812 12.9498C101.015 12.9503 102.015 13.8743 102.015 15.0136C102.014 16.1534 101.014 17.0769 99.7797 17.0764L86.865 17.08C83.9037 17.081 81.3459 17.5188 79.192 18.3984C76.2302 19.5841 74.7494 21.4403 74.7489 23.9669C74.7478 26.4935 76.2277 28.3502 79.1889 29.5379C81.3423 30.4191 83.8996 30.8584 86.8609 30.8609L99.7756 30.8722C101.009 30.8722 102.009 31.7967 102.009 32.936C102.009 34.0753 101.008 34.9993 99.7746 34.9988L82.4177 34.9937C77.3697 34.9896 73.0096 34.2865 69.339 32.8768C64.291 30.9768 61.768 28.0053 61.769 23.9633ZM8.31197 1.00002L106.701 1.02911C108.985 1.03013 110.854 2.89088 110.853 5.16492L110.842 42.7903C110.841 45.0643 108.971 46.9241 106.687 46.9236L8.29864 46.8945C6.01402 46.8935 4.14563 45.0327 4.14614 42.7587L4.15742 5.13328C4.15793 2.85925 6.02735 0.999513 8.31197 1.00002Z" fill="#FEFEFE"/>
<path d="M108.076 10.3091C108.076 10.9459 107.848 11.4918 107.391 11.9459C106.934 12.4005 106.386 12.6275 105.746 12.6275C105.106 12.6275 104.558 12.4005 104.101 11.9459C103.645 11.4918 103.416 10.9459 103.416 10.3091C103.416 9.67186 103.645 9.12593 104.101 8.67184C104.558 8.21723 105.106 7.99019 105.746 7.99019C106.386 7.99019 106.934 8.21723 107.391 8.67184C107.848 9.12593 108.076 9.67186 108.076 10.3091ZM107.82 10.3091C107.82 9.73564 107.618 9.24838 107.215 8.84684C106.812 8.4453 106.322 8.24479 105.746 8.24479C105.17 8.24479 104.681 8.4453 104.278 8.84684C103.874 9.24838 103.673 9.73564 103.673 10.3091C103.673 10.8821 103.874 11.3693 104.278 11.7709C104.681 12.1724 105.17 12.3729 105.746 12.3729C106.322 12.3729 106.812 12.1724 107.215 11.7709C107.618 11.3693 107.82 10.8821 107.82 10.3091ZM106.719 11.6785H106.392L105.938 10.6719C105.891 10.5704 105.841 10.503 105.788 10.4714C105.734 10.4397 105.663 10.4234 105.573 10.4234H105.228V11.6785H104.927V8.97082H105.695C105.959 8.97082 106.166 9.03256 106.316 9.15603C106.465 9.27899 106.54 9.45961 106.54 9.69737C106.54 9.86727 106.478 10.0117 106.354 10.1305C106.247 10.2326 106.111 10.2938 105.944 10.3152C106.025 10.3408 106.088 10.3749 106.134 10.4173C106.178 10.4596 106.22 10.5275 106.258 10.6209L106.719 11.6785ZM106.22 9.69737C106.22 9.49788 106.141 9.35961 105.983 9.28308C105.902 9.24532 105.801 9.22593 105.683 9.22593H105.228V10.1688H105.599C105.774 10.1688 105.921 10.1265 106.041 10.0413C106.16 9.95656 106.22 9.84176 106.22 9.69737Z" fill="#FEFEFE"/>
</svg>
